# xmcd CD database file
# Copyright (C) 1995-1998 Ti Kan
#
# Track frame offsets:
#	150
#	24618
#	47131
#	73151
#	102744
#	128302
#	158577
#	178540
#	200415
#	221839
#
# Disc length: 3287 seconds
#
# Revision: 1
# Processed by: cddbd v1.4b41PL1 Copyright (c) Steve Scherf et al.
# Submitted via: CDex 1.30
#
DISCID=8d0cd50a
DTITLE=Tracy Griffin - Grace
DYEAR=1999
DGENRE=Blues
TTITLE0=Buckethead
TTITLE1=Ain't That Peculiar
TTITLE2=Blue Collar Worker
TTITLE3=Pure Love
TTITLE4=Freedom Man Cry
TTITLE5=Zanzibar Blue
TTITLE6=Baby Teeth
TTITLE7=Find A Way
TTITLE8=Grace
TTITLE9=The In Between
EXTD=\n\nYEAR: 1999  ID3G:   0
EXTT0=
EXTT1=
EXTT2=
EXTT3=
EXTT4=
EXTT5=
EXTT6=
EXTT7=
EXTT8=
EXTT9=
PLAYORDER=
